<svg xmlns="http://www.w3.org/2000/svg" viewBox="0 0 100 100">
    <!-- 'GJ' vectorisé et centré pour favicon -->
    <g transform="translate(0, 4) scale(1, 1)">
      <path d="M34 68 L34 44 L44 44 L44 48 L39 48 L39 64 L44 64 L44 68 Z" fill="#ECEFF4"/>
      <path d="M66 68 Q59 68 59 62 L59 46 Q59 40 66 40 L76 40 Q83 40 83 46 L83 50 L78 50 L78 47 Q78 44 75 44 L67 44 Q64 44 64 47 L64 61 Q64 64 67 64 L75 64 Q78 64 78 61 L78 58 L73 58 L73 61 Q73 64 76 64 L76 68 Z" fill="#ECEFF4"/>
    </g>
  <defs>
    <linearGradient id="nord-gradient" x1="0" y1="0" x2="1" y2="1">
      <stop offset="0%" stop-color="#2E3440"/>
      <stop offset="60%" stop-color="#5E81AC"/>
      <stop offset="100%" stop-color="#88C0D0"/>
    </linearGradient>
  </defs>
  <rect width="100" height="100" rx="20" fill="url(#nord-gradient)"/>
  <g>
    <circle cx="50" cy="55" r="6" fill="#A3BE8C"/>
  </g>
</svg>